<svg width="37" height="36" viewBox="0 0 37 36" fill="none" xmlns="http://www.w3.org/2000/svg">
<ellipse cx="18.2744" cy="17.5976" rx="18.2744" ry="17.5976" fill="white"/>
<path fill-rule="evenodd" clip-rule="evenodd" d="M15.7179 23.4634C15.4885 23.4634 15.2729 23.3756 15.1106 23.2162L9.99726 18.1938C9.6627 17.8652 9.6627 17.3299 9.99726 17.0011C10.1595 16.8417 10.3751 16.7539 10.6045 16.7539C10.8337 16.7539 11.0493 16.8417 11.2115 17.0011L15.4211 21.1358C15.503 21.2162 15.6104 21.2563 15.7179 21.2563C15.825 21.2563 15.9325 21.2162 16.0143 21.1358L25.3372 11.9786C25.4993 11.8193 25.7151 11.7317 25.9442 11.7317C26.1736 11.7317 26.3892 11.8193 26.5515 11.9786C26.8861 12.3075 26.8861 12.8427 26.5515 13.1716L16.3249 23.2162C16.1626 23.3756 15.947 23.4634 15.7179 23.4634" fill="#50957D"/>
</svg>
