<svg width="75" height="75" viewBox="0 0 75 75" fill="none" xmlns="http://www.w3.org/2000/svg">
<circle cx="37.5" cy="37.5" r="37.5" fill="#E9F5F5"/>
<path d="M51.3493 40L53.7193 37.6914C57.803 33.7145 55.7847 28.3392 52.4942 24.8889C51.4091 23.7513 50.1701 22.7659 48.8873 22.0641C47.2164 21.1507 41.9771 19.8129 38.5508 23.0651L31.4396 29.968C29.5197 31.8313 34.3634 33.6342 36.8158 31.2766L38.6064 29.5551C41.2533 27.2141 44.5791 31.9053 48.7237 28.7146" stroke="#50957D" stroke-width="2" stroke-linecap="round" stroke-linejoin="round"/>
<path d="M23.8053 39L21.4046 36.6764C13.4029 28.9328 27.2615 15.6388 35.3825 23.2994L37 24.8607" stroke="#50957D" stroke-width="2" stroke-linecap="round" stroke-linejoin="round"/>
<path d="M43 31L51.4349 40.8557C53.1562 42.8677 50.5999 46.6985 48.3902 44.1585L44.4367 39.6154" stroke="#50957D" stroke-width="2" stroke-linecap="round" stroke-linejoin="round"/>
<path d="M40 42.39L44.825 47.3466C46.757 49.3307 50.6691 46.3977 48.2156 43.8658L43.4988 39" stroke="#50957D" stroke-width="2" stroke-linecap="round" stroke-linejoin="round"/>
<path d="M39 47.952L41.2227 50.3487C43.0228 52.2873 46.5161 49.5196 44.2713 47" stroke="#50957D" stroke-width="2" stroke-linecap="round" stroke-linejoin="round"/>
<path d="M39.0861 47.6563L38.379 48.3634L39.0861 47.6563ZM39.3454 47.9155L40.0525 47.2084L39.3454 47.9155ZM39.3454 51.0981L40.0525 51.8052L40.0529 51.8048L39.3454 51.0981ZM37.0977 53.3458L37.8048 54.0529L37.0977 53.3458ZM33.914 53.3458L33.2054 54.0514L33.2074 54.0533L33.914 53.3458ZM33.6559 53.0865L34.3645 52.3809L34.3625 52.379L33.6559 53.0865ZM33.6559 49.9029L34.363 50.61L33.6559 49.9029ZM35.9024 47.6563L35.1953 46.9492L35.9024 47.6563ZM37.1299 43.6244L36.4228 44.3315L36.4243 44.333L37.1299 43.6244ZM37.3764 43.8698L38.0835 43.1627L38.082 43.1612L37.3764 43.8698ZM37.3764 46.8969L36.6693 46.1897L37.3764 46.8969ZM33.8961 50.3772L34.6032 51.0843L33.8961 50.3772ZM30.8701 50.3772L30.163 51.0843L30.163 51.0843L30.8701 50.3772ZM30.6236 50.1307L31.3307 49.4236V49.4236L30.6236 50.1307ZM30.6236 47.1037L29.9166 46.3965L29.9165 46.3966L30.6236 47.1037ZM34.1039 43.6244L34.8109 44.3316L34.8115 44.331L34.1039 43.6244ZM35.0937 39.5855L35.7627 38.8422L35.7627 38.8422L35.0937 39.5855ZM35.3506 39.8167L34.6817 40.56L34.6817 40.56L35.3506 39.8167ZM35.3496 42.655L34.6811 41.9113L34.6805 41.9118L35.3496 42.655ZM30.0601 47.4166L30.729 48.1599L30.7291 48.1598L30.0601 47.4166ZM26.9064 47.4166L26.2374 48.1599L26.9064 47.4166ZM26.6495 47.1853L27.3185 46.4421H27.3184L26.6495 47.1853ZM26.6495 44.347L27.318 45.0908L27.3184 45.0903L26.6495 44.347ZM31.939 39.5865L32.6079 40.3298L32.6084 40.3294L31.939 39.5865ZM29.0986 37.6477L28.3915 38.3549L29.0986 37.6477ZM29.3534 37.9025L30.0605 37.1954V37.1954L29.3534 37.9025ZM29.3534 41.0447L28.6464 40.3376L28.6461 40.3378L29.3534 41.0447ZM26.046 44.3539L26.753 45.0611L26.7532 45.0608L26.046 44.3539ZM22.9033 44.3539L23.6104 43.6468L23.6089 43.6453L22.9033 44.3539ZM22.6474 44.0991L21.9399 44.8058L21.9418 44.8078L22.6474 44.0991ZM22.6474 40.9569L23.3545 41.6641L23.3546 41.6639L22.6474 40.9569ZM25.9559 37.6477L26.6631 38.3548L26.6634 38.3544L25.9559 37.6477ZM38.379 48.3634L38.6383 48.6226L40.0525 47.2084L39.7932 46.9492L38.379 48.3634ZM38.6383 48.6226C39.121 49.1054 39.1203 49.9084 38.6378 50.3914L40.0529 51.8048C41.3128 50.5433 41.3187 48.4746 40.0525 47.2084L38.6383 48.6226ZM38.6383 50.391L36.3906 52.6387L37.8048 54.0529L40.0525 51.8052L38.6383 50.391ZM36.3906 52.6387C35.9091 53.1202 35.1039 53.1208 34.6207 52.6382L33.2074 54.0533C34.4709 55.3153 36.5418 55.3159 37.8048 54.0529L36.3906 52.6387ZM34.6226 52.6402L34.3645 52.3809L32.9472 53.7921L33.2054 54.0514L34.6226 52.6402ZM34.3625 52.379C33.8799 51.8969 33.8783 51.0946 34.363 50.61L32.9487 49.1957C31.6823 50.4622 31.6851 52.5316 32.9492 53.7941L34.3625 52.379ZM34.363 50.61L36.6095 48.3634L35.1953 46.9492L32.9487 49.1957L34.363 50.61ZM36.6095 48.3634C37.0943 47.8786 37.8948 47.8791 38.379 48.3634L39.7932 46.9492C38.5286 45.6845 36.4617 45.6827 35.1953 46.9492L36.6095 48.3634ZM36.4243 44.333L36.6708 44.5784L38.082 43.1612L37.8355 42.9158L36.4243 44.333ZM36.6693 44.5769C37.1106 45.0183 37.1098 45.7492 36.6693 46.1897L38.0835 47.604C39.3038 46.3837 39.3072 44.3864 38.0835 43.1627L36.6693 44.5769ZM36.6693 46.1897L33.189 49.6701L34.6032 51.0843L38.0835 47.604L36.6693 46.1897ZM33.189 49.6701C32.7491 50.11 32.0171 50.11 31.5772 49.6701L30.163 51.0843C31.3839 52.3052 33.3823 52.3052 34.6032 51.0843L33.189 49.6701ZM31.5772 49.6701L31.3307 49.4236L29.9165 50.8378L30.163 51.0843L31.5772 49.6701ZM31.3307 49.4236C30.8902 48.9831 30.8894 48.2521 31.3307 47.8108L29.9165 46.3966C28.6928 47.6202 28.6962 49.6175 29.9165 50.8378L31.3307 49.4236ZM31.3306 47.8109L34.8109 44.3316L33.3969 42.9172L29.9166 46.3965L31.3306 47.8109ZM34.8115 44.331C35.2521 43.8899 35.9806 43.8893 36.4228 44.3315L37.837 42.9173C36.6143 41.6945 34.6187 41.6939 33.3964 42.9177L34.8115 44.331ZM34.4248 40.3288L34.6817 40.56L36.0196 39.0734L35.7627 38.8422L34.4248 40.3288ZM34.6817 40.56C35.1066 40.9425 35.1058 41.5296 34.6811 41.9113L36.0181 43.3987C37.3242 42.2247 37.3299 40.2527 36.0196 39.0734L34.6817 40.56ZM34.6805 41.9118L29.391 46.6733L30.7291 48.1598L36.0186 43.3983L34.6805 41.9118ZM29.3911 46.6733C28.9071 47.1089 28.0594 47.1089 27.5754 46.6733L26.2374 48.1599C27.4821 49.28 29.4844 49.28 30.729 48.1599L29.3911 46.6733ZM27.5754 46.6733L27.3185 46.4421L25.9805 47.9286L26.2374 48.1599L27.5754 46.6733ZM27.3184 46.4421C26.894 46.0601 26.8938 45.472 27.318 45.0908L25.981 43.6033C24.6699 44.7818 24.6762 46.7548 25.9805 47.9286L27.3184 46.4421ZM27.3184 45.0903L32.6079 40.3298L31.27 38.8432L25.9805 43.6038L27.3184 45.0903ZM32.6084 40.3294C33.0956 39.8903 33.9375 39.8903 34.4248 40.3288L35.7627 38.8422C34.5147 37.7191 32.5176 37.719 31.2696 38.8436L32.6084 40.3294ZM28.3915 38.3549L28.6464 38.6097L30.0605 37.1954L29.8056 36.9406L28.3915 38.3549ZM28.6464 38.6097C29.1183 39.0816 29.1174 39.8666 28.6464 40.3376L30.0605 41.7519C31.3115 40.5011 31.3149 38.4496 30.0605 37.1954L28.6464 38.6097ZM28.6461 40.3378L25.3387 43.647L26.7532 45.0608L30.0607 41.7516L28.6461 40.3378ZM25.3389 43.6468C24.8681 44.1175 24.0817 44.118 23.6104 43.6468L22.1963 45.0611C23.4492 46.3138 25.5018 46.3121 26.753 45.0611L25.3389 43.6468ZM23.6089 43.6453L23.353 43.3905L21.9418 44.8078L22.1978 45.0626L23.6089 43.6453ZM23.3549 43.3924C22.8819 42.9189 22.8816 42.1368 23.3545 41.6641L21.9403 40.2497C20.6846 41.5053 20.6887 43.5532 21.9399 44.8058L23.3549 43.3924ZM23.3546 41.6639L26.6631 38.3548L25.2488 36.9407L21.9402 40.2499L23.3546 41.6639ZM26.6634 38.3544C27.1355 37.8819 27.9183 37.8817 28.3915 38.3549L29.8056 36.9406C28.5525 35.6876 26.5028 35.6852 25.2484 36.941L26.6634 38.3544Z" fill="#50957D"/>
</svg>
