<svg width="75" height="75" viewBox="0 0 75 75" fill="none" xmlns="http://www.w3.org/2000/svg">
<circle cx="37.5" cy="37.5" r="37.5" fill="#E9F5F5"/>
<path d="M46.5066 34.2765C48.8982 36.2407 50.3789 38.9569 50.3789 41.9563C50.3789 45.294 48.5451 48.2797 45.6602 50.2725L46.5872 54.9095C46.6699 55.3253 46.3507 55.6657 45.8904 55.6625L41.8251 55.6403C41.3648 55.6381 40.9342 55.2934 40.8461 54.8787L40.3413 52.4977C39.3231 52.7045 37.9305 52.8159 36.8339 52.8159C35.7372 52.8159 34.3446 52.7045 33.3264 52.4977L32.8216 54.8787C32.7335 55.2934 32.3029 55.6381 31.8426 55.6403L27.7773 55.6625C27.3181 55.6647 26.9925 55.3253 27.0816 54.9095L28.0075 50.6003C26.1716 50.0307 24.762 48.6456 23.9793 46.7386H21.996C21.4296 46.7386 20.7635 46.7375 20.7635 45.9145V41.3083C20.7635 40.4916 21.226 39.9921 21.9631 39.9921H23.5052C23.8626 38.381 24.6539 36.8962 25.7739 35.6181C25.6031 33.4418 24.5754 32.4278 23.607 30.5877C27.0285 30.1868 29.3704 30.9313 30.8287 32.1468C31.726 31.7957 32.7685 31.5253 33.8493 31.3471" stroke="#50957D" stroke-width="2" stroke-linecap="round" stroke-linejoin="round"/>
<path d="M54.7732 39.5022C54.4009 40.164 52.9129 42.0837 50.4141 40.2499" stroke="#50957D" stroke-width="2" stroke-linecap="round" stroke-linejoin="round"/>
<path fill-rule="evenodd" clip-rule="evenodd" d="M41.9588 19.7637C45.3633 19.7637 48.123 22.5234 48.123 25.9279C48.123 29.3325 45.3633 32.0932 41.9588 32.0932C38.5543 32.0932 35.7946 29.3325 35.7946 25.9279C35.7946 22.5234 38.5543 19.7637 41.9588 19.7637Z" stroke="#50957D" stroke-width="2"/>
<path d="M40.3375 28.552C40.8465 28.8087 41.4182 28.884 41.9952 28.8639C44.0305 28.7949 44.1302 26.0331 41.8032 26.0193C39.3702 26.0055 39.4529 23.2533 41.6526 23.1779C42.2062 23.1589 42.7143 23.2405 43.2085 23.494" stroke="#50957D" stroke-width="2" stroke-linecap="round" stroke-linejoin="round"/>
<path d="M28.0157 38.9731C27.6668 39.3242 27.4027 39.6731 27.1863 40.0571" stroke="#50957D" stroke-width="2" stroke-linecap="round" stroke-linejoin="round"/>
</svg>
