<svg width="75" height="75" viewBox="0 0 75 75" fill="none" xmlns="http://www.w3.org/2000/svg">
<circle cx="37.5" cy="37.5" r="37.5" fill="#E9F5F5"/>
<path fill-rule="evenodd" clip-rule="evenodd" d="M53.8051 50.6951L50.7061 53.7941L42.7481 45.8371L45.8971 42.7871L53.8051 50.6951Z" stroke="#50957D" stroke-width="2" stroke-linecap="round" stroke-linejoin="round"/>
<path fill-rule="evenodd" clip-rule="evenodd" d="M34.9056 21.72C42.1876 21.72 48.0916 27.623 48.0916 34.906C48.0916 42.188 42.1876 48.091 34.9056 48.091C27.6236 48.091 21.7196 42.188 21.7196 34.906C21.7196 27.623 27.6236 21.72 34.9056 21.72Z" stroke="#50957D" stroke-width="2" stroke-linecap="round" stroke-linejoin="round"/>
<path d="M34.7721 24.3113C40.6801 24.3113 45.4691 29.1003 45.4691 35.0083" stroke="#50957D" stroke-width="2" stroke-linecap="round" stroke-linejoin="round"/>
<path d="M34.5584 29.2173V31.3083" stroke="#50957D" stroke-width="2" stroke-linecap="round" stroke-linejoin="round"/>
<path d="M34.5584 40.4287V42.5197" stroke="#50957D" stroke-width="2" stroke-linecap="round" stroke-linejoin="round"/>
<path d="M37.5895 32.399C36.6255 32.079 35.7575 31.778 34.8855 31.68C30.1885 31.152 29.5855 35.884 34.5855 35.869C39.4455 35.854 38.9875 40.59 34.2785 40.057C33.4075 39.959 32.5385 39.657 31.5815 39.339" stroke="#50957D" stroke-width="2" stroke-linecap="round" stroke-linejoin="round"/>
</svg>
