<svg width="138" height="41" viewBox="0 0 138 41" fill="none" xmlns="http://www.w3.org/2000/svg">
<path fill-rule="evenodd" clip-rule="evenodd" d="M71.2799 15.5568C72.9949 16.6442 74.9036 16.9715 76.9138 17.0968V17.098C77.3124 17.0271 77.7143 16.9681 78.1163 16.9091L78.1164 16.9091L78.1164 16.9091L78.1165 16.9091L78.1166 16.9091L78.1167 16.9091L78.1167 16.909L78.1168 16.909L78.1169 16.909L78.1169 16.909L78.117 16.909L78.1171 16.909L78.1171 16.909L78.1172 16.909L78.1173 16.909L78.1173 16.9089L78.1174 16.9089C78.9922 16.7805 79.8671 16.6521 80.7076 16.4017C84.2299 15.3514 86.2931 12.2574 86.2085 8.3418C86.1308 4.77781 84.0249 2.10512 80.5093 1.16857C78.8225 0.718285 77.1099 0.648653 75.3859 0.938786C72.0405 1.50164 68.5509 3.39214 68.0393 8.15611C67.7193 11.1468 68.5588 13.8346 71.2799 15.5568ZM30.0841 8.24436C30.3785 7.3616 30.673 6.47885 30.966 5.59559L31.1811 5.59331L30.8441 16.0655H34.9011L35.3417 0.764648H29.0347L25.8438 10.0168L23.6421 0.764648H17.4513L16.1457 16.1328C16.4221 16.1328 16.6976 16.1339 16.9724 16.135H16.9724H16.9725H16.9726H16.9726H16.9727H16.9728H16.9728H16.9729H16.9729H16.973H16.9731H16.9731H16.9732H16.9733H16.9734H16.9734H16.9735H16.9736C17.888 16.1387 18.7947 16.1423 19.7001 16.1054C19.8358 16.0997 20.0521 15.7197 20.0671 15.5017C20.1298 14.5666 20.1774 13.6304 20.225 12.6942L20.225 12.6941L20.225 12.6941L20.225 12.694L20.225 12.694L20.225 12.6939L20.225 12.6938L20.225 12.6938L20.225 12.6937L20.225 12.6936L20.225 12.6936L20.2251 12.6935L20.2251 12.6935L20.2251 12.6934L20.2251 12.6933L20.2251 12.6933L20.2251 12.6932L20.2251 12.6931L20.2251 12.6931L20.2251 12.693L20.2251 12.693L20.2251 12.6929L20.2251 12.6928L20.2251 12.6928L20.2251 12.6927L20.2251 12.6926L20.2251 12.6926L20.2251 12.6925L20.2252 12.6924L20.2252 12.6924L20.2252 12.6923L20.2252 12.6923L20.2252 12.6922L20.2252 12.6921L20.2252 12.6921L20.2252 12.692L20.2252 12.6919C20.2666 11.8785 20.3079 11.065 20.3592 10.2519C20.4245 9.20869 20.5086 8.16655 20.5981 7.05767C20.6378 6.56529 20.6786 6.05975 20.7193 5.5351C20.7775 5.64126 20.8256 5.72115 20.8643 5.78544C20.928 5.89117 20.9662 5.95472 20.9827 6.02356C21.0912 6.49048 21.1999 6.95737 21.3086 7.42426L21.3109 7.43396C21.9364 10.1204 22.5618 12.807 23.159 15.4994C23.274 16.013 23.4661 16.1671 23.9907 16.1305C24.866 16.0712 25.7552 16.0347 26.626 16.1168C27.2598 16.1785 27.5278 16.029 27.7257 15.4093C28.493 13.0145 29.2885 10.6294 30.0841 8.24436ZM1.4312 23.8235L0.78894 39.196H5.75507C5.75507 38.6865 5.75756 38.1799 5.76005 37.6755C5.76612 36.4412 5.77213 35.2197 5.74141 33.9988C5.72319 33.2832 5.95891 33.0538 6.66836 33.0721C7.84717 33.1028 9.02712 33.0969 10.2385 33.0908C10.738 33.0883 11.2429 33.0858 11.7552 33.0858V29.8082H6.09556V27.1342H13.0796L13.2663 23.8235H1.4312ZM81.4121 8.2842C81.4121 5.5122 79.7539 3.65301 77.2741 3.64701C74.6777 3.64102 72.7548 5.83007 72.774 8.76879C72.791 11.4388 74.5317 13.2548 77.0749 13.2548C79.6011 13.256 81.4121 11.1797 81.4121 8.2842ZM131.766 6.63977C131.694 7.78101 131.627 8.85378 131.552 10.0658H124.955V12.8082H132.681L132.471 16.1372H119.804L120.627 0.764648H133.241L133.076 4.00578H125.38L125.17 6.63977H131.766ZM5.91041 10.0863H12.5302L12.7162 6.62607H6.16846L6.32539 4.01263H14.0378L14.2261 0.764648H1.60494L0.78894 16.1372H13.4287L13.6426 12.8059H5.91041V10.0863ZM117.306 12.8132L117.081 16.1372H104.447L105.261 0.764648H117.884L117.687 3.98633H115.825C115.335 3.98698 114.846 3.98939 114.356 3.9918C113.12 3.99789 111.883 4.00397 110.647 3.98173C110.083 3.97253 109.9 4.18639 109.915 4.70264C109.927 5.12378 109.924 5.54546 109.921 5.99629C109.92 6.20519 109.918 6.42035 109.918 6.64462H116.366L116.175 10.0687H109.616L109.475 12.8132H117.306ZM40.4736 0.765641C39.9524 0.765827 39.4321 0.766013 38.913 0.766013L38.2211 16.1372H42.7171L43.1217 4.04932C43.3637 4.03386 43.5928 4.01401 43.8128 3.99493C44.275 3.95487 44.6977 3.91823 45.1187 3.93292C45.8317 3.95688 46.5775 4.03905 46.8402 4.87215C47.2119 6.05103 46.3934 7.20025 45.1211 7.28698C44.8037 7.30866 44.4847 7.30355 44.1393 7.29803C43.9754 7.29541 43.8055 7.29269 43.6271 7.29269C43.6817 7.51747 43.7429 7.7347 43.8027 7.94728L43.8027 7.94738C43.9319 8.40606 44.055 8.84308 44.0926 9.28755C44.1689 10.1891 44.6403 10.3717 45.474 10.406C48.9885 10.5475 51.3303 8.78085 51.6341 5.51466C51.8792 2.87614 50.2445 0.89383 47.6294 0.792261C46.8348 0.761024 46.0389 0.763513 45.2436 0.765999C44.9638 0.766874 44.6841 0.767748 44.4046 0.767154C43.0919 0.764707 41.7799 0.765175 40.4736 0.765641ZM87.172 0.78094C87.6497 0.780943 88.1163 0.782764 88.5749 0.784553C89.7403 0.789101 90.8539 0.793446 91.9663 0.767246C92.4463 0.755833 92.5706 1.01603 92.7283 1.3584C93.2408 2.46993 93.7617 3.57696 94.2964 4.71308L94.2967 4.71363L94.2973 4.71502C94.5238 5.19616 94.7527 5.68251 94.9844 6.17663C95.248 5.73854 95.5096 5.30766 95.7684 4.88131L95.772 4.87542L95.7752 4.87011L95.7783 4.86507L95.7832 4.85701L95.7841 4.85539L95.7844 4.85492C96.4809 3.70789 97.1576 2.59326 97.8011 1.45882C98.0946 0.940711 98.4123 0.745562 99.012 0.766104C100.031 0.800061 101.052 0.793924 102.128 0.787458C102.571 0.784798 103.023 0.782081 103.487 0.782081L100.218 5.60602C99.9885 5.94472 99.7627 6.28659 99.5367 6.62857C99.0089 7.42735 98.4808 8.22671 97.9012 8.98745C97.2244 9.87532 96.9435 10.8362 96.9516 11.9227C96.958 12.8843 96.9566 13.846 96.9552 14.8259V14.8274V14.8289V14.8304V14.832V14.8335V14.8351V14.8367V14.8383V14.8399V14.8415V14.8431V14.8481V14.8531V14.8581V14.8632V14.8682V14.8732V14.8782V14.8832V14.8883C96.9545 15.3008 96.9539 15.7167 96.9539 16.1372H91.9421C91.9686 15.7456 91.9892 15.356 92.0097 14.9683V14.9682C92.0557 14.0947 92.1013 13.2305 92.2137 12.3746C92.4048 10.923 92.2345 9.63224 91.4276 8.33468C90.433 6.7377 89.5243 5.08722 88.6153 3.43634C88.244 2.76196 87.8727 2.0875 87.4955 1.4166C87.4315 1.30331 87.3736 1.18612 87.3015 1.04056L87.3012 1.03996L87.3008 1.03916L87.3008 1.03901L87.3005 1.03849L87.3003 1.038L87.3002 1.03791L87.2996 1.03662L87.2993 1.03595L87.2975 1.03244L87.2965 1.03035L87.2954 1.02823C87.2588 0.954192 87.2185 0.872802 87.172 0.78094ZM54.4916 0.764648L53.5779 16.1362H53.5791C53.679 16.1362 53.7803 16.1364 53.8826 16.1367C54.0901 16.1372 54.3015 16.1377 54.5129 16.1362C55.1743 16.1296 55.8358 16.1219 56.4972 16.1143H56.4973H56.4974H56.4975H56.4976H56.4976H56.4977H56.4978H56.4979H56.498H56.498L56.4983 16.1143C58.1225 16.0955 59.7467 16.0767 61.3709 16.0734C61.9782 16.0718 62.5854 16.0857 63.1927 16.0996C63.861 16.1149 64.5295 16.1302 65.1983 16.1248C65.4217 16.1225 65.8189 15.9194 65.8366 15.7756C65.9238 15.0506 65.9654 14.3205 66.0094 13.5492L66.0095 13.5483C66.0239 13.2951 66.0386 13.0376 66.0553 12.7743H58.7929L59.4667 0.764648H54.4916ZM35.2342 31.7815C34.7159 34.3213 33.2852 35.3462 30.4176 35.3529H28.6231L29.0282 26.8494C30.5636 26.6699 32.0649 26.5602 33.4969 27.1408C34.6064 27.5907 35.0967 28.5148 35.2549 29.5387C35.3668 30.2734 35.3814 31.0557 35.2342 31.7815ZM27.9279 23.8676C29.6265 23.8584 31.3251 23.8492 33.0236 23.8246C38.8811 23.7431 40.4318 27.9308 40.0979 31.7629C39.869 34.3875 38.9243 36.696 36.4346 38.147C34.9142 39.034 33.2187 39.1223 31.5371 39.1631C29.7162 39.207 27.8935 39.1975 26.0866 39.188H26.0865H26.0864H26.0863H26.0862H26.0861H26.086H26.0859H26.0854C25.3284 39.1841 24.5742 39.1801 23.8241 39.1801L24.5656 23.879C24.7034 23.879 24.8476 23.8794 24.9962 23.8797C25.3074 23.8805 25.6378 23.8813 25.9681 23.879C26.6214 23.8746 27.2746 23.8711 27.9279 23.8676ZM42.6832 23.8235H47.5793C47.5492 24.2942 47.5159 24.7621 47.4827 25.2282C47.4099 26.2501 47.3377 27.2632 47.3011 28.278C47.29 28.5936 47.2781 28.9092 47.2663 29.2249L47.2662 29.2275C47.2008 30.9638 47.1354 32.702 47.206 34.4333C47.2559 35.6466 47.9585 36.2313 49.2025 36.4317C50.2819 36.606 51.3729 36.4886 51.9862 35.4355C52.3746 34.7689 52.6656 33.9648 52.7306 33.1975C52.8975 31.2349 53.0061 29.2676 53.1147 27.3001C53.1593 26.4938 53.2038 25.6874 53.2523 24.8814C53.2662 24.6418 53.2892 24.4028 53.313 24.1565C53.323 24.0529 53.3331 23.948 53.3427 23.8413H58.3769L57.8737 31.6249C57.846 32.0553 57.8212 32.4857 57.7964 32.916C57.7535 33.6585 57.7107 34.4007 57.6534 35.1425C57.5004 37.0935 56.4859 38.4739 54.7317 39.1535C51.3207 40.4735 47.8796 40.553 44.493 39.0207C42.8397 38.2735 41.9968 36.9215 42.064 35.0797C42.1177 33.6161 42.2108 32.1536 42.304 30.691L42.304 30.6907L42.304 30.6906L42.304 30.6905L42.304 30.6904L42.3041 30.6903L42.3041 30.6902L42.3041 30.6901L42.3041 30.69C42.3518 29.9402 42.3996 29.1904 42.442 28.4405C42.5008 27.4011 42.5537 26.361 42.6076 25.299L42.6076 25.2987L42.6077 25.2985L42.6077 25.2971L42.6078 25.2948L42.6079 25.2932L42.6079 25.2929L42.608 25.2923C42.6326 24.808 42.6574 24.319 42.6832 23.8235ZM109.075 23.8396L109.075 23.8396C108.082 23.8477 107.087 23.8558 106.091 23.8558L105.407 39.196H110.055C110.057 39.1451 110.059 39.0966 110.062 39.0501L110.067 38.9523L110.067 38.9517C110.073 38.8326 110.079 38.7246 110.082 38.6165C110.102 37.9306 110.122 37.2447 110.142 36.5588L110.142 36.5579L110.142 36.5571L110.142 36.5562L110.142 36.5554L110.142 36.5546L110.142 36.5537C110.227 33.5871 110.312 30.6201 110.417 27.6546C110.427 27.4155 110.662 26.9797 110.796 26.9797C111.852 26.9682 112.92 26.9613 113.961 27.1108C114.788 27.2292 115.169 27.8892 115.1 28.7032C115.02 29.6368 114.291 30.3796 113.18 30.5428C112.715 30.6108 112.241 30.6201 111.769 30.6294C111.554 30.6336 111.34 30.6378 111.127 30.6475L114.083 39.1949H119.149C119.106 39.0882 119.067 38.9896 119.031 38.8965C118.964 38.7256 118.904 38.5734 118.837 38.4245C118.612 37.9221 118.385 37.4204 118.157 36.9186L118.157 36.9181L118.157 36.9177L118.157 36.9173L118.156 36.9169L118.156 36.9164L118.156 36.916C117.69 35.8866 117.223 34.8568 116.772 33.8208C116.185 32.4689 116.2 32.4607 117.488 31.7752L117.492 31.7731C119.25 30.8383 120.103 28.9631 119.709 26.8981C119.399 25.2631 118.058 23.9639 116.121 23.8903C113.777 23.8013 111.431 23.8204 109.075 23.8396ZM91.9698 31.5097L94.2422 26.7058L95.8091 31.5097H91.9698ZM103.057 37.8236L103.485 39.0102V39.0091C103.49 39.0217 103.486 39.0378 103.478 39.0672C103.474 39.0852 103.468 39.1081 103.462 39.1382H98.5544C98.4334 38.7757 98.31 38.4115 98.1861 38.0457L98.1856 38.0442L98.1854 38.0439L98.1853 38.0436L98.1852 38.0432L98.1851 38.0429C97.889 37.1691 97.5899 36.2862 97.3137 35.3966C97.168 34.9231 96.925 34.76 96.4414 34.7679C94.996 34.7947 93.5502 34.7947 92.1048 34.7679C91.6574 34.76 91.4065 34.9152 91.228 35.3207C90.7229 36.466 90.2054 37.6067 89.6552 38.7304C89.558 38.9298 89.2845 39.1676 89.0868 39.1722C87.8891 39.1999 86.6913 39.1971 85.4517 39.1943C85.0693 39.1934 84.683 39.1926 84.2915 39.1926C84.7778 38.2704 85.2597 37.3579 85.738 36.4522L85.7389 36.4505L85.7409 36.4468L85.741 36.4465L85.7456 36.4378C87.015 34.0342 88.2591 31.6785 89.4925 29.3181C89.8615 28.612 90.2207 27.9007 90.5798 27.1895C91.0607 26.2371 91.5415 25.2848 92.0461 24.3452C92.1771 24.1027 92.5602 23.8637 92.8336 23.8558C94.3787 23.8139 95.9245 23.8127 97.4697 23.8524C97.7002 23.8569 98.0583 24.0552 98.1295 24.25C99.7891 28.7683 101.423 33.2951 103.057 37.8236ZM74.2852 36.9851L74.2846 36.989C74.1574 37.8549 74.038 38.6677 73.897 39.4759C73.8714 39.6219 73.6576 39.822 73.5128 39.8409C71.1514 40.1588 68.7899 40.4084 66.443 39.7031C63.0903 38.6953 61.3448 36.1475 61.2591 32.4659C61.1477 27.5798 64.4002 24.3491 68.8111 23.8853C69.9874 23.7608 71.1847 23.8487 72.3816 23.9365C72.8825 23.9733 73.3834 24.0101 73.8826 24.0313C74.288 24.0489 74.5665 24.1996 74.5687 24.7471C74.5703 25.4591 74.611 26.1705 74.6499 26.8518L74.6499 26.8521C74.6656 27.1261 74.681 27.3952 74.6935 27.6575C74.2486 27.6189 73.8125 27.5706 73.3823 27.5229C72.4605 27.4207 71.5659 27.3215 70.6713 27.3279C67.6181 27.3467 65.4171 30.3431 66.0843 33.4584C66.4374 35.1091 67.744 36.4713 69.4003 36.5348C70.4331 36.5752 71.4719 36.4538 72.5102 36.3324C72.9568 36.2802 73.4033 36.228 73.8492 36.1887C73.944 36.1802 74.0384 36.1591 74.1714 36.1293L74.1715 36.1293L74.1716 36.1293C74.2416 36.1136 74.3223 36.0956 74.4194 36.0757V36.0769C74.373 36.3871 74.3286 36.6892 74.2852 36.9851ZM122.027 23.8378C121.613 23.839 121.193 23.8402 120.764 23.8402C121.201 24.6183 121.625 25.3885 122.044 26.1503L122.045 26.1518C123.034 27.9491 123.998 29.7002 125.046 31.4006C125.846 32.697 126.008 33.9911 125.841 35.4301C125.741 36.2944 125.685 37.1637 125.627 38.0425C125.603 38.4251 125.578 38.8095 125.549 39.196H130.369C130.381 39.0704 130.395 38.9479 130.409 38.8276L130.409 38.8266L130.409 38.8257C130.437 38.5816 130.464 38.3461 130.472 38.1096L130.485 37.7546V37.7542V37.7539C130.519 36.8452 130.553 35.9358 130.553 35.0273C130.554 33.8918 130.851 32.9012 131.559 31.9678C132.269 31.0339 132.915 30.0532 133.562 29.0722L133.562 29.0714C133.835 28.6572 134.108 28.2429 134.386 27.8321C134.949 26.999 135.512 26.1644 136.097 25.2966L136.102 25.2895L136.103 25.2876C136.421 24.8163 136.746 24.3352 137.08 23.8391C136.606 23.8391 136.145 23.8415 135.692 23.8438C134.584 23.8496 133.53 23.8551 132.477 23.8243C131.957 23.8094 131.714 24.0034 131.468 24.4291C130.809 25.5731 130.126 26.703 129.428 27.8579L129.427 27.8601C129.15 28.3185 128.871 28.7808 128.589 29.2495C128.406 28.8589 128.225 28.4721 128.046 28.0883L128.033 28.0595L128.032 28.0575C127.449 26.8106 126.881 25.5961 126.293 24.3914C126.181 24.1643 125.897 23.8699 125.687 23.8631C124.487 23.8304 123.288 23.834 122.027 23.8378H122.027H122.027ZM82.7086 39.196H77.5729L78.3009 23.8235H83.3317L82.7086 39.196ZM20.1117 39.1805C20.1738 39.1771 20.2376 39.1735 20.3037 39.1706L20.9447 23.8235H15.9189L15.1859 39.1957C15.5704 39.1957 15.9532 39.1958 16.3346 39.1959C17.474 39.1961 18.602 39.1963 19.7306 39.1946C19.8548 39.1946 19.9796 39.1877 20.1117 39.1805Z" fill="#B01313"/>
</svg>
