<svg width="37" height="36" viewBox="0 0 37 36" fill="none" xmlns="http://www.w3.org/2000/svg">
<ellipse cx="18.2744" cy="17.5976" rx="18.2744" ry="17.5976" fill="#B01313" fill-opacity="0.08"/>
<path fill-rule="evenodd" clip-rule="evenodd" d="M10.3555 24.1759C10.3555 23.896 10.4686 23.6332 10.6743 23.4352L16.7361 17.5977L10.6743 11.7599C10.4686 11.5622 10.3555 11.2991 10.3555 11.0194C10.3555 10.7398 10.4686 10.4767 10.6743 10.2787C10.88 10.0812 11.1529 9.97192 11.4433 9.97192C11.7336 9.97192 12.0068 10.0812 12.2122 10.2787L18.2742 16.1164L24.3366 10.2787C24.542 10.0812 24.8152 9.97192 25.1055 9.97192C25.3959 9.97192 25.6688 10.0812 25.8745 10.2787C26.0798 10.4764 26.1933 10.7398 26.1933 11.0194C26.1933 11.2991 26.0798 11.5622 25.8745 11.7599L19.8124 17.5977L25.8745 23.4352C26.0798 23.6332 26.1933 23.896 26.1933 24.1759C26.1933 24.4556 26.0798 24.7187 25.8745 24.9164C25.6688 25.1142 25.3959 25.2231 25.1055 25.2231C24.8152 25.2231 24.542 25.1142 24.3366 24.9164L18.2742 19.0789L12.2122 24.9164C12.0068 25.1142 11.7336 25.2231 11.4433 25.2231C11.1529 25.2231 10.88 25.1142 10.6743 24.9164C10.4683 24.7187 10.3555 24.4559 10.3555 24.1759Z" fill="#B01313"/>
</svg>
