<svg width="47" height="49" viewBox="0 0 47 49" fill="none" xmlns="http://www.w3.org/2000/svg">
<path fill-rule="evenodd" clip-rule="evenodd" d="M0.959778 4.80383H46.0703V0.960693H0.959778V4.80383ZM46.0703 7.87033L1.91958 7.68618C1.91958 7.68618 3.9982 9.04238 4.9871 9.69186C5.26433 9.8738 5.54246 10.0543 5.82062 10.2349L5.8207 10.2349C6.58873 10.7335 7.35698 11.2321 8.10733 11.761C8.77767 12.2326 9.48009 12.4901 10.2765 12.4901C12.7236 12.4895 15.1708 12.4892 17.6181 12.4889H17.6182H17.6184C24.9608 12.4879 32.3037 12.487 39.6465 12.4777C39.9147 12.4777 40.2149 12.3694 40.4441 12.2126C40.7997 11.9696 41.1363 11.6952 41.4731 11.4207C41.6105 11.3087 41.7479 11.1966 41.8867 11.0866C42.1103 10.9097 42.3335 10.7321 42.5566 10.5546L42.5567 10.5545L42.5568 10.5544C43.0713 10.145 43.5857 9.73566 44.1051 9.33477C44.7411 8.84455 46.0703 7.87033 46.0703 7.87033ZM40.3115 17.294H8.63817V13.4509H40.3115V17.294ZM40.3115 19.2156V19.8528C40.3115 28.3657 40.3115 36.8775 40.3092 45.3893V48.038H35.9234V47.6518C35.9156 47.5799 35.9182 47.5039 35.9208 47.4279C35.9221 47.3899 35.9234 47.352 35.9234 47.3145V46.9442C35.9232 45.1723 35.9221 43.4005 35.921 41.6286C35.9171 35.2499 35.9132 28.8712 35.9479 22.4924C35.9537 21.4032 34.6532 20.6126 33.7788 20.9057C32.9056 21.1987 32.4748 21.7235 32.4748 22.6832C32.4743 24.5968 32.4739 26.5103 32.4735 28.4238C32.4724 34.1622 32.4713 39.9007 32.4644 45.6392V48.0391H29.2521V44.6885H29.2568C29.2486 37.4624 29.2486 30.2353 29.2486 23.0092C29.2486 22.9559 29.2495 22.9025 29.2503 22.849C29.2524 22.7119 29.2545 22.5743 29.2428 22.4379C29.1497 21.3339 28.0786 20.6206 26.9958 20.9386C26.0888 21.2055 25.6965 21.8098 25.6965 22.9581C25.6965 30.484 25.6965 38.0099 25.6883 45.5358V48.038H22.5809V45.5914C22.5774 37.9701 22.5774 30.3488 22.5774 22.7275C22.5774 21.5929 21.8497 20.8205 20.7995 20.8398C19.7959 20.8568 19.1288 21.5929 19.1288 22.6776C19.1288 30.3182 19.1288 37.9599 19.1207 45.6005V48.038H16.0307V47.3906L16.0272 47.3133C16.0233 40.8468 16.0235 34.3802 16.0236 27.9137C16.0237 26.6203 16.0237 25.327 16.0237 24.0337C16.0237 23.8721 16.0257 23.7104 16.0276 23.5486C16.0319 23.1966 16.0362 22.8445 16.0202 22.4936C16.0029 21.9664 15.7334 21.4777 15.292 21.1731C14.8506 20.8686 14.2884 20.7835 13.7732 20.9432C12.8581 21.2112 12.4739 21.7848 12.4739 22.8979C12.4736 24.4162 12.4734 25.9346 12.4732 27.4529C12.4725 33.5252 12.4718 39.5973 12.468 45.6687V48.0391H8.6434V44.6885H8.64457C8.63758 36.3766 8.63758 28.0659 8.63875 19.754C8.63875 19.6426 8.64692 19.5312 8.65583 19.4099C8.66037 19.3482 8.66509 19.2838 8.66902 19.2156H40.3115Z" fill="#313155"/>
</svg>
